<svg xmlns="http://www.w3.org/2000/svg" version="1.1" xmlns:xlink="http://www.w3.org/1999/xlink" xmlns:svgjs="http://svgjs.dev/svgjs" width="1000" height="1000"><style>
    #light-icon {
      display: inline;
    }
    #dark-icon {
      display: none;
    }

    @media (prefers-color-scheme: dark) {
      #light-icon {
        display: none;
      }
      #dark-icon {
        display: inline;
      }
    }
  </style><g id="light-icon"><svg xmlns="http://www.w3.org/2000/svg" version="1.1" xmlns:xlink="http://www.w3.org/1999/xlink" xmlns:svgjs="http://svgjs.dev/svgjs" width="1000" height="1000"><g clip-path="url(#SvgjsClipPath1137)"><rect width="1000" height="1000" fill="#c8c7b5"></rect><g transform="matrix(0.439453125,0,0,0.439453125,50,50)"><svg xmlns="http://www.w3.org/2000/svg" version="1.1" xmlns:xlink="http://www.w3.org/1999/xlink" xmlns:svgjs="http://svgjs.dev/svgjs" width="2048" height="2048"><svg version="1.2" xmlns="http://www.w3.org/2000/svg" viewBox="0 0 2048 2048" width="2048" height="2048"><style>.a{fill:#f4f5e1}.b{fill:#28233a}.c{fill:#8d3ca2}.d{fill:#58aa5e}.e{fill:#4c1f60}</style><path class="a" d="m1070.6 79.7c-0.3 22.3-0.7 44.6-1 66.9 31.6 4.4 76.7 15.1 120.5 44.4 139.9 93.6 125.7 282.6 173.6 551.5 72.6 407.7 182.2 407.2 147.1 594.4-36.7 195.2-202.8 445.1-453.4 461.6-195.8 12.9-366.9-121.8-445.3-261.4-87.8-156.5-60.2-321.2-40.9-437.1 27.8-166 71.6-150.3 120.5-349.3 61.4-249.4 13.2-357.9 109.4-478.9 57-71.7 132.1-106.8 182.9-124.8-0.8-19.5-1.5-39-2.3-58.5-72.2 17.3-211.3 62.9-305.2 190-15.8 21.4-28.8 43-39.4 64.1-44.9 22.2-374.4 192.4-462.1 579.7-105.1 463.7 236.6 796.2 252.6 811.2 356.5 335 825.8 201.9 846.3 195.7 42.9-13 413.2-132.1 559.7-520.9 131.4-348.7-16.9-649.8-40.9-696.5-118.1-230.1-306.7-339.6-378.5-376.7-16.6-36.1-56.4-110.1-138.7-171.4-82.8-61.7-165.4-78.6-204.8-84z"></path><path class="b" d="m1673 452c-119.2-124.2-247.6-189.3-328.9-222.8 13.8 15.8 28.7 34.9 43.1 57.3 12.2 18.9 22.1 37 30.1 53.6 67.7 39.5 284.3 177.3 387.1 455.9 16.2 43.8 150.9 429.1-91.5 781.9-166.4 242.2-438.2 363.9-685.6 365.5-36 0.2-163.8-1.5-313.2-63.2-329.3-135.9-454.8-435.5-467.5-467.2-11.9-29.6-124.7-324.9 8.2-643.4 80.6-193.1 215.5-308.3 252.7-338.5 49.1-40 94.6-67.8 128.3-86.3 9.4-17.5 20.8-36.4 34.5-56.1 16.5-23.7 33.3-43.9 48.9-60.8-70.5 26.4-173.4 74.1-277.9 160.9-162.2 134.7-235.1 286.1-252.2 323-150.7 327.3-43.6 642.2-22.5 700.6 102.3 283.3 308.6 427.7 352.1 457 78.1 52.6 257.1 155.4 503 155.2 329.6-0.3 550.3-185.7 614.5-244.6 44.6-40.8 303.9-286.6 303.5-682.6-0.4-344.1-196.7-572.3-266.9-645.5z"></path><path class="b" d="m700.3 376.5c-81 153.1 4 212.9-61.6 449.3-29.7 107-89.2 207.5-116.7 315.2-50.1 180.8-8.5 382.7 118.5 522.5 349.1 389.8 958.6 82.2 904.1-423.5-13.4-163-114.5-302-144.4-461-23.1-110.3-0.3-267.7-35.8-378.5-39.1-113.6-140.3-210-254.8-246.4-13.6-4.5-25.9-5.6-36.8-8.3-0.4-6.7-1-17.6-1.2-31-0.5-53.9 7.2-66.7-1.7-78.7-15.6-21.1-68.8-20.4-85.1 2.2-6.8 9.3-6.1 17.5-2.5 77.4 1.6 26.9 1.6 30.4 0.3 31.2-10 1.8-24.4 4.9-41.2 10.2-150.3 47.6-225.7 190.3-241.1 219.3z"></path><path class="c" d="m1181.1 484.3c-4.2 21.4-15.8 65.7-51.6 108.5-39.2 46.9-85.7 66-106.4 73.2-18.5-7.4-78.2-33.8-112.2-99.4-17.6-33.9-21.8-65.8-22.7-85.9-47.4 22.7-94.8 45.5-142.1 68.2-2 59.5 0.2 169.1-14.2 228.7-20.8 132.8-90.9 251.9-129.8 379-26.2 102.8-27.2 220.9 15.9 319 19.7 28.1 97.7 132.3 242.7 166.3 142.4 33.4 255.6-22.9 297.2-44.4 32.7-16.9 117.2-61.9 176.2-159.3 92.3-152.3 52.6-318.1 43.9-354.4-9.9-41.5-26.7-84.9-60.3-171.6-32.7-84.4-43.4-100.4-57.4-140.8-19.4-55.9-38.8-140.3-30.9-256.6-16.1-10.1-32.3-20.3-48.4-30.4z"></path><path fill-rule="evenodd" class="b" d="m358.7 881.8h70.5c19.6 0 35.4 15.8 35.4 35.4v0.1c0 19.6-15.8 35.4-35.4 35.4h-70.5c-19.6 0-35.4-15.8-35.4-35.4v-0.1c0-19.6 15.8-35.4 35.4-35.4z"></path><path fill-rule="evenodd" class="b" d="m1661.8 1207.9h53.4c16.1 0 29.1 13 29.1 29.1 0 16.1-13 29.1-29.1 29.1h-53.4c-16.1 0-29.1-13-29.1-29.1 0-16.1 13-29.1 29.1-29.1z"></path><path fill-rule="evenodd" class="b" d="m1654.5 1043.6h70.5c19.6 0 35.4 15.8 35.4 35.4v0.1c0 19.6-15.8 35.4-35.4 35.4h-70.5c-19.6 0-35.4-15.8-35.4-35.4v-0.1c0-19.6 15.8-35.4 35.4-35.4z"></path><path fill-rule="evenodd" class="b" d="m1626.7 882.1h70.5c19.6 0 35.4 15.8 35.4 35.4v0.1c0 19.6-15.8 35.4-35.4 35.4h-70.5c-19.6 0-35.4-15.8-35.4-35.4v-0.1c0-19.6 15.8-35.4 35.4-35.4z"></path><path fill-rule="evenodd" class="b" d="m327.9 1202.2h53.4c16.1 0 29.1 13 29.1 29.1 0 16.1-13 29.1-29.1 29.1h-53.4c-16.1 0-29.1-13-29.1-29.1 0-16.1 13-29.1 29.1-29.1z"></path><path fill-rule="evenodd" class="b" d="m322.6 1039.3h70.5c19.6 0 35.4 15.8 35.4 35.4v0.1c0 19.6-15.8 35.4-35.4 35.4h-70.5c-19.6 0-35.4-15.8-35.4-35.4v-0.1c0-19.6 15.8-35.4 35.4-35.4z"></path><path class="d" d="m1029.3 214.8c-141.9 0.9-219.6 124.2-237.4 152.4-23.4 37.1-45.7 90.7-34.5 98.8 11.7 8.5 57.6-34.3 97.3-75.1 51.1-42.9 74.2-44.9 85.8-38.3 24.1 13.8 3.2 67.5 26.8 135.6 14.6 42 40 71.8 59.8 90.8 28.8-21 62.3-53.1 78.9-100 23.2-65.6-0.1-122.9 21.6-132.5 9.6-4.3 21.3 3.9 84.1 55.1 66.1 53.9 83.7 69.7 90.4 65.1 9.5-6.5-6.4-51.2-25.3-85-13.6-24.4-93.7-167.9-247.4-167z"></path><path class="e" d="m1229.5 514.7c-15.8 104.8-3.2 184.1 8.1 230.9 12.8 52.8 33.2 101.5 42.7 124.3 24.6 58.7 47.4 98 54 110.1 60 110.7 79 377.7-77.5 534.6-68.3 68.5-145.4 91.8-172.4 99.6-181.1 52.4-335.6-40.6-365.9-58.8-45.8-27.5-78.9-57.7-100.4-79.9 8.1 17.5 21 42.8 40.4 70.8 20.7 29.9 160.8 224.7 388.4 217 179.4-6.1 291.7-134 310.6-156.4 135.1-159.6 106.1-362.3 100-402.4-17.9-117.8-86.5-224.6-118.5-338.5-28.8-87.2-31.5-164.5-31.9-261-4-49.8 10.9-50.7-23.6-64.1-18-8.7-36-17.5-54-26.2z"></path><path class="a" d="m707.7 1125c-1.9 1.9-0.7 344.4 96 351.4 11.2 0.8 20.4-3.1 25.2-5.5 2.1-2 5-5.4 6.5-10.4 1.8-6.2 0.7-12.7-3.1-20.6-9.1-18.8-26.7-30.7-28.6-32-52.6-36.3-48.8-268-54.9-278.7-0.7-1.2-1.5-2.1-1.5-2.1-3.1-3.4-7.4-4-12.2-4.5-17.9-2.1-21.1-2.1-24.8 0.2 0 0-1.4 0.9-2.7 2.2z"></path><path fill-rule="evenodd" class="a" d="m742.3 1048.8c-20.1 0-36.4-16.3-36.4-36.4 0-20.1 16.3-36.4 36.4-36.4 20.1 0 36.4 16.3 36.4 36.4 0 20.1-16.3 36.4-36.4 36.4z"></path></svg></svg></g></g><defs><clipPath id="SvgjsClipPath1137"><rect width="1000" height="1000" x="0" y="0" rx="500" ry="500"></rect></clipPath></defs></svg></g><g id="dark-icon"><svg xmlns="http://www.w3.org/2000/svg" version="1.1" xmlns:xlink="http://www.w3.org/1999/xlink" xmlns:svgjs="http://svgjs.dev/svgjs" width="1000" height="1000"><g clip-path="url(#SvgjsClipPath1138)"><rect width="1000" height="1000" fill="#c8c7b5"></rect><g transform="matrix(0.439453125,0,0,0.439453125,50,50)"><svg xmlns="http://www.w3.org/2000/svg" version="1.1" xmlns:xlink="http://www.w3.org/1999/xlink" xmlns:svgjs="http://svgjs.dev/svgjs" width="2048" height="2048"><svg version="1.2" xmlns="http://www.w3.org/2000/svg" viewBox="0 0 2048 2048" width="2048" height="2048"><style>.a{fill:#f4f5e1}.b{fill:#28233a}.c{fill:#8d3ca2}.d{fill:#58aa5e}.e{fill:#4c1f60}</style><path class="a" d="m1070.6 79.7c-0.3 22.3-0.7 44.6-1 66.9 31.6 4.4 76.7 15.1 120.5 44.4 139.9 93.6 125.7 282.6 173.6 551.5 72.6 407.7 182.2 407.2 147.1 594.4-36.7 195.2-202.8 445.1-453.4 461.6-195.8 12.9-366.9-121.8-445.3-261.4-87.8-156.5-60.2-321.2-40.9-437.1 27.8-166 71.6-150.3 120.5-349.3 61.4-249.4 13.2-357.9 109.4-478.9 57-71.7 132.1-106.8 182.9-124.8-0.8-19.5-1.5-39-2.3-58.5-72.2 17.3-211.3 62.9-305.2 190-15.8 21.4-28.8 43-39.4 64.1-44.9 22.2-374.4 192.4-462.1 579.7-105.1 463.7 236.6 796.2 252.6 811.2 356.5 335 825.8 201.9 846.3 195.7 42.9-13 413.2-132.1 559.7-520.9 131.4-348.7-16.9-649.8-40.9-696.5-118.1-230.1-306.7-339.6-378.5-376.7-16.6-36.1-56.4-110.1-138.7-171.4-82.8-61.7-165.4-78.6-204.8-84z"></path><path class="b" d="m1673 452c-119.2-124.2-247.6-189.3-328.9-222.8 13.8 15.8 28.7 34.9 43.1 57.3 12.2 18.9 22.1 37 30.1 53.6 67.7 39.5 284.3 177.3 387.1 455.9 16.2 43.8 150.9 429.1-91.5 781.9-166.4 242.2-438.2 363.9-685.6 365.5-36 0.2-163.8-1.5-313.2-63.2-329.3-135.9-454.8-435.5-467.5-467.2-11.9-29.6-124.7-324.9 8.2-643.4 80.6-193.1 215.5-308.3 252.7-338.5 49.1-40 94.6-67.8 128.3-86.3 9.4-17.5 20.8-36.4 34.5-56.1 16.5-23.7 33.3-43.9 48.9-60.8-70.5 26.4-173.4 74.1-277.9 160.9-162.2 134.7-235.1 286.1-252.2 323-150.7 327.3-43.6 642.2-22.5 700.6 102.3 283.3 308.6 427.7 352.1 457 78.1 52.6 257.1 155.4 503 155.2 329.6-0.3 550.3-185.7 614.5-244.6 44.6-40.8 303.9-286.6 303.5-682.6-0.4-344.1-196.7-572.3-266.9-645.5z"></path><path class="b" d="m700.3 376.5c-81 153.1 4 212.9-61.6 449.3-29.7 107-89.2 207.5-116.7 315.2-50.1 180.8-8.5 382.7 118.5 522.5 349.1 389.8 958.6 82.2 904.1-423.5-13.4-163-114.5-302-144.4-461-23.1-110.3-0.3-267.7-35.8-378.5-39.1-113.6-140.3-210-254.8-246.4-13.6-4.5-25.9-5.6-36.8-8.3-0.4-6.7-1-17.6-1.2-31-0.5-53.9 7.2-66.7-1.7-78.7-15.6-21.1-68.8-20.4-85.1 2.2-6.8 9.3-6.1 17.5-2.5 77.4 1.6 26.9 1.6 30.4 0.3 31.2-10 1.8-24.4 4.9-41.2 10.2-150.3 47.6-225.7 190.3-241.1 219.3z"></path><path class="c" d="m1181.1 484.3c-4.2 21.4-15.8 65.7-51.6 108.5-39.2 46.9-85.7 66-106.4 73.2-18.5-7.4-78.2-33.8-112.2-99.4-17.6-33.9-21.8-65.8-22.7-85.9-47.4 22.7-94.8 45.5-142.1 68.2-2 59.5 0.2 169.1-14.2 228.7-20.8 132.8-90.9 251.9-129.8 379-26.2 102.8-27.2 220.9 15.9 319 19.7 28.1 97.7 132.3 242.7 166.3 142.4 33.4 255.6-22.9 297.2-44.4 32.7-16.9 117.2-61.9 176.2-159.3 92.3-152.3 52.6-318.1 43.9-354.4-9.9-41.5-26.7-84.9-60.3-171.6-32.7-84.4-43.4-100.4-57.4-140.8-19.4-55.9-38.8-140.3-30.9-256.6-16.1-10.1-32.3-20.3-48.4-30.4z"></path><path fill-rule="evenodd" class="b" d="m358.7 881.8h70.5c19.6 0 35.4 15.8 35.4 35.4v0.1c0 19.6-15.8 35.4-35.4 35.4h-70.5c-19.6 0-35.4-15.8-35.4-35.4v-0.1c0-19.6 15.8-35.4 35.4-35.4z"></path><path fill-rule="evenodd" class="b" d="m1661.8 1207.9h53.4c16.1 0 29.1 13 29.1 29.1 0 16.1-13 29.1-29.1 29.1h-53.4c-16.1 0-29.1-13-29.1-29.1 0-16.1 13-29.1 29.1-29.1z"></path><path fill-rule="evenodd" class="b" d="m1654.5 1043.6h70.5c19.6 0 35.4 15.8 35.4 35.4v0.1c0 19.6-15.8 35.4-35.4 35.4h-70.5c-19.6 0-35.4-15.8-35.4-35.4v-0.1c0-19.6 15.8-35.4 35.4-35.4z"></path><path fill-rule="evenodd" class="b" d="m1626.7 882.1h70.5c19.6 0 35.4 15.8 35.4 35.4v0.1c0 19.6-15.8 35.4-35.4 35.4h-70.5c-19.6 0-35.4-15.8-35.4-35.4v-0.1c0-19.6 15.8-35.4 35.4-35.4z"></path><path fill-rule="evenodd" class="b" d="m327.9 1202.2h53.4c16.1 0 29.1 13 29.1 29.1 0 16.1-13 29.1-29.1 29.1h-53.4c-16.1 0-29.1-13-29.1-29.1 0-16.1 13-29.1 29.1-29.1z"></path><path fill-rule="evenodd" class="b" d="m322.6 1039.3h70.5c19.6 0 35.4 15.8 35.4 35.4v0.1c0 19.6-15.8 35.4-35.4 35.4h-70.5c-19.6 0-35.4-15.8-35.4-35.4v-0.1c0-19.6 15.8-35.4 35.4-35.4z"></path><path class="d" d="m1029.3 214.8c-141.9 0.9-219.6 124.2-237.4 152.4-23.4 37.1-45.7 90.7-34.5 98.8 11.7 8.5 57.6-34.3 97.3-75.1 51.1-42.9 74.2-44.9 85.8-38.3 24.1 13.8 3.2 67.5 26.8 135.6 14.6 42 40 71.8 59.8 90.8 28.8-21 62.3-53.1 78.9-100 23.2-65.6-0.1-122.9 21.6-132.5 9.6-4.3 21.3 3.9 84.1 55.1 66.1 53.9 83.7 69.7 90.4 65.1 9.5-6.5-6.4-51.2-25.3-85-13.6-24.4-93.7-167.9-247.4-167z"></path><path class="e" d="m1229.5 514.7c-15.8 104.8-3.2 184.1 8.1 230.9 12.8 52.8 33.2 101.5 42.7 124.3 24.6 58.7 47.4 98 54 110.1 60 110.7 79 377.7-77.5 534.6-68.3 68.5-145.4 91.8-172.4 99.6-181.1 52.4-335.6-40.6-365.9-58.8-45.8-27.5-78.9-57.7-100.4-79.9 8.1 17.5 21 42.8 40.4 70.8 20.7 29.9 160.8 224.7 388.4 217 179.4-6.1 291.7-134 310.6-156.4 135.1-159.6 106.1-362.3 100-402.4-17.9-117.8-86.5-224.6-118.5-338.5-28.8-87.2-31.5-164.5-31.9-261-4-49.8 10.9-50.7-23.6-64.1-18-8.7-36-17.5-54-26.2z"></path><path class="a" d="m707.7 1125c-1.9 1.9-0.7 344.4 96 351.4 11.2 0.8 20.4-3.1 25.2-5.5 2.1-2 5-5.4 6.5-10.4 1.8-6.2 0.7-12.7-3.1-20.6-9.1-18.8-26.7-30.7-28.6-32-52.6-36.3-48.8-268-54.9-278.7-0.7-1.2-1.5-2.1-1.5-2.1-3.1-3.4-7.4-4-12.2-4.5-17.9-2.1-21.1-2.1-24.8 0.2 0 0-1.4 0.9-2.7 2.2z"></path><path fill-rule="evenodd" class="a" d="m742.3 1048.8c-20.1 0-36.4-16.3-36.4-36.4 0-20.1 16.3-36.4 36.4-36.4 20.1 0 36.4 16.3 36.4 36.4 0 20.1-16.3 36.4-36.4 36.4z"></path></svg></svg></g></g><defs><clipPath id="SvgjsClipPath1138"><rect width="1000" height="1000" x="0" y="0" rx="500" ry="500"></rect></clipPath></defs></svg></g></svg>